<?xml version="1.0" encoding="UTF-8" ?>
<!DOCTYPE svg PUBLIC "-//W3C//DTD SVG 1.1//EN" "http://www.w3.org/Graphics/SVG/1.1/DTD/svg11.dtd">
<svg width="630pt" height="300pt" viewBox="0 0 630 300" version="1.1" xmlns="http://www.w3.org/2000/svg">
<g id="#d1cbb0ff">
<path fill="#d1cbb0" opacity="1.00" d=" M 274.92 16.36 C 277.91 10.19 284.46 7.02 288.91 2.03 C 289.95 3.05 290.99 4.07 292.04 5.09 C 286.98 8.62 282.63 13.00 278.27 17.32 C 277.99 18.51 277.73 19.71 277.48 20.90 C 288.47 32.40 293.18 48.97 291.21 64.60 C 290.75 66.74 291.56 68.75 292.59 70.58 C 303.34 70.15 315.35 67.00 321.49 57.39 C 326.72 50.45 325.69 41.24 324.89 33.13 C 323.37 22.62 325.25 10.99 332.37 2.76 C 334.28 6.31 332.38 10.23 332.46 13.98 C 332.02 19.79 335.15 25.18 334.60 31.01 C 334.75 41.21 329.07 50.08 324.87 58.99 C 316.82 73.59 301.79 85.41 284.74 86.26 C 269.92 84.04 256.28 70.63 257.38 55.02 C 256.57 44.01 261.79 33.76 267.70 24.84 C 257.82 18.68 245.15 19.14 234.01 20.85 C 221.30 22.36 210.12 29.41 200.39 37.33 C 190.86 46.05 186.58 58.50 180.42 69.49 C 174.33 86.52 168.67 103.71 163.80 121.13 C 161.83 126.00 158.54 131.95 152.32 130.85 C 152.38 128.12 152.47 125.40 152.58 122.68 C 154.05 122.53 155.53 122.37 157.01 122.22 C 161.64 117.09 163.02 110.13 166.17 104.14 C 168.28 97.34 168.49 90.00 171.57 83.47 C 175.45 72.74 177.29 61.15 183.48 51.35 C 191.04 39.12 199.57 26.98 211.19 18.27 C 226.39 11.28 243.95 9.31 260.32 12.89 C 265.26 13.82 269.69 17.54 274.92 16.36 M 289.07 69.21 C 289.56 59.92 290.92 49.83 285.72 41.53 C 283.25 34.27 277.61 28.79 270.92 25.29 C 257.75 40.46 267.83 69.37 289.07 69.21 Z" />
<path fill="#d1cbb0" opacity="1.00" d=" M 342.81 24.91 C 343.40 16.86 349.58 5.91 359.06 7.82 C 364.55 8.81 369.73 11.34 374.05 14.85 C 373.27 24.70 366.40 32.43 361.76 40.72 C 353.36 55.50 340.22 66.57 327.47 77.44 C 310.48 90.86 291.92 101.98 273.78 113.73 C 260.86 122.63 245.88 129.42 236.11 142.15 C 229.13 150.47 223.08 159.69 218.75 169.66 C 211.45 192.06 213.47 217.55 224.54 238.38 C 232.10 252.51 248.28 260.23 263.96 259.86 C 282.02 260.79 299.81 251.96 311.09 238.05 C 322.04 225.40 325.36 206.70 319.11 191.15 C 315.48 179.28 308.12 169.08 300.27 159.66 C 293.84 152.15 298.23 141.53 300.94 133.36 C 303.10 133.80 305.39 134.34 306.76 136.25 C 322.20 156.49 352.21 158.32 374.32 149.23 C 379.22 147.22 378.18 140.90 376.84 136.88 C 373.52 129.56 370.96 121.94 367.64 114.63 C 363.72 101.87 364.07 87.31 370.51 75.41 C 379.37 62.92 392.29 54.15 404.92 45.87 C 411.71 41.70 418.78 37.01 426.98 36.63 C 434.38 37.16 439.86 43.57 440.55 50.75 C 445.59 76.72 441.87 105.15 427.76 127.83 C 418.45 140.54 408.32 152.87 396.17 162.97 C 396.34 168.79 401.19 173.29 400.66 179.22 C 397.38 175.25 392.24 170.41 391.58 165.85 C 381.30 174.11 368.28 179.11 355.00 178.78 C 346.86 179.13 338.73 178.35 330.60 178.62 C 334.34 192.78 334.01 207.47 333.49 221.98 C 329.45 248.35 314.06 274.61 288.98 285.76 C 264.08 293.48 234.07 284.88 219.08 263.00 C 206.97 243.41 206.43 219.24 207.39 196.87 C 210.06 181.14 214.40 165.52 222.52 151.64 C 230.17 135.31 245.56 125.12 259.18 114.25 C 269.70 109.01 279.55 102.61 289.69 96.71 C 313.22 83.58 333.83 65.81 353.05 47.05 C 355.84 43.73 360.67 40.41 359.65 35.48 C 355.59 29.61 344.28 33.31 342.81 24.91 M 405.37 71.34 C 393.67 79.76 381.19 89.30 376.19 103.38 C 372.04 115.55 377.45 128.46 383.97 138.75 C 388.99 138.12 392.52 134.31 396.20 131.24 C 408.46 120.69 419.11 108.18 426.85 93.96 C 430.98 84.86 435.32 74.89 433.21 64.69 C 431.61 60.85 426.56 60.99 423.14 61.72 C 416.63 63.62 410.71 67.22 405.37 71.34 Z" />
<path fill="#d1cbb0" opacity="1.00" d=" M 384.72 24.43 C 383.45 18.87 387.28 13.89 390.97 10.18 C 393.68 10.66 398.02 9.25 399.02 12.80 C 399.96 16.52 399.52 20.42 399.61 24.23 C 400.61 25.04 401.61 25.84 402.61 26.65 C 402.60 28.86 402.58 31.06 402.53 33.26 C 400.10 33.42 397.67 33.61 395.26 33.91 C 387.82 45.64 378.19 56.69 365.99 63.63 C 365.81 63.09 365.44 62.00 365.26 61.45 C 374.70 51.98 384.80 42.85 392.56 31.95 C 389.80 29.67 386.03 28.00 384.72 24.43 M 390.19 19.02 C 391.55 19.20 392.91 19.39 394.27 19.56 C 394.68 20.79 395.12 22.00 395.58 23.21 C 398.28 19.55 391.56 15.23 390.19 19.02 M 391.55 20.23 C 391.29 24.81 396.02 18.91 391.55 20.23 Z" />
<path fill="#d1cbb0" opacity="1.00" d=" M 303.70 30.28 C 308.25 30.22 312.48 33.49 314.57 37.28 C 313.88 41.50 310.03 45.02 306.61 47.40 C 302.95 47.33 300.26 43.78 297.16 42.06 C 297.27 40.50 297.39 38.93 297.51 37.37 C 299.57 35.01 301.65 32.66 303.70 30.28 Z" />
<path fill="#d1cbb0" opacity="1.00" d=" M 235.15 39.05 C 239.92 41.34 242.99 45.89 245.36 50.44 C 246.80 57.62 244.31 64.73 243.58 71.83 C 252.09 77.78 260.21 86.33 261.42 97.10 C 261.10 103.82 256.94 112.55 248.94 111.72 C 228.56 114.99 214.12 90.70 220.52 72.73 C 220.60 73.51 220.76 75.06 220.84 75.84 C 221.40 75.28 221.96 74.71 222.50 74.14 C 222.51 72.70 222.58 71.26 222.62 69.82 C 221.93 77.67 221.28 85.65 223.47 93.44 C 226.32 100.62 232.90 107.27 240.99 107.45 C 246.42 106.47 251.55 102.21 253.28 96.92 C 254.25 89.99 252.98 81.41 246.77 77.18 C 243.19 74.14 238.05 74.73 233.65 74.74 C 231.45 73.35 229.60 71.52 227.95 69.53 C 231.61 68.56 235.25 67.16 237.81 64.24 C 237.84 60.26 237.32 56.29 236.14 52.49 C 237.57 52.38 239.00 52.27 240.44 52.14 C 240.63 47.16 237.41 43.18 235.15 39.05 Z" />
<path fill="#d1cbb0" opacity="1.00" d=" M 203.31 48.33 C 207.06 48.31 210.80 48.75 214.46 49.61 C 214.93 54.08 214.59 58.62 212.83 62.80 C 208.70 62.54 204.61 61.87 200.53 61.23 C 200.01 56.71 201.04 52.25 203.31 48.33 Z" />
<path fill="#d1cbb0" opacity="1.00" d=" M 477.70 82.63 C 479.97 75.05 480.86 67.14 483.11 59.56 C 484.61 67.51 482.20 75.35 480.98 83.14 C 479.85 92.23 474.38 99.99 469.24 107.28 C 458.25 118.92 447.45 130.74 435.85 141.79 C 422.85 156.84 409.72 175.12 411.62 196.06 C 414.57 215.35 440.94 225.25 456.19 213.28 C 468.74 206.42 478.10 191.74 474.96 177.15 C 474.61 174.43 472.38 172.76 470.26 171.37 C 466.67 177.91 455.78 178.98 453.05 171.17 C 451.65 162.86 451.97 153.69 456.34 146.22 C 457.40 144.05 460.04 143.77 462.02 142.86 C 472.02 146.40 478.91 157.41 477.55 167.99 C 478.30 179.77 476.39 191.29 474.56 202.82 C 471.89 214.55 464.80 225.01 454.89 231.76 C 444.68 237.53 430.76 237.13 421.76 229.23 C 415.70 222.81 410.66 214.88 409.53 205.98 C 409.34 198.34 409.26 190.68 409.55 183.04 C 413.40 154.06 432.70 129.57 455.72 112.73 C 466.02 105.26 472.77 94.13 477.70 82.63 Z" />
<path fill="#d1cbb0" opacity="1.00" d=" M 183.14 74.71 C 183.08 70.77 184.58 67.05 187.81 64.69 C 194.25 70.30 190.33 79.45 191.88 86.75 C 199.28 83.67 204.19 74.35 213.30 76.52 C 213.49 78.40 213.67 80.29 213.88 82.17 C 212.48 83.19 211.07 84.20 209.67 85.22 C 209.55 84.27 209.32 82.37 209.20 81.42 C 199.58 81.03 194.85 91.18 187.20 95.21 C 187.52 90.05 188.26 84.93 188.46 79.76 C 186.79 77.97 185.03 76.26 183.14 74.71 Z" />
<path fill="#d1cbb0" opacity="1.00" d=" M 402.59 82.42 C 409.14 82.19 416.44 84.28 421.66 79.01 C 421.61 82.27 421.99 85.94 419.42 88.42 C 414.05 94.26 410.61 101.66 404.66 106.97 C 404.62 109.14 404.62 111.31 404.64 113.49 C 403.14 113.54 401.63 113.52 400.16 113.80 C 397.18 116.21 395.04 120.57 390.52 119.58 C 390.19 116.48 390.69 113.31 393.49 111.49 C 400.12 106.51 403.33 98.56 409.34 93.02 C 409.22 92.21 408.97 90.60 408.84 89.79 C 405.64 89.69 402.47 90.10 399.32 90.56 C 399.22 92.80 399.02 95.03 398.75 97.25 C 397.83 91.94 397.92 86.00 402.59 82.42 Z" />
<path fill="#d1cbb0" opacity="1.00" d=" M 447.10 80.40 C 448.69 80.38 450.28 80.35 451.87 80.33 C 452.31 83.11 452.54 85.92 452.65 88.74 C 450.14 88.28 448.28 86.40 446.70 84.51 C 446.57 83.13 446.91 81.76 447.10 80.40 Z" />
<path fill="#d1cbb0" opacity="1.00" d=" M 338.61 83.39 C 344.00 83.59 349.60 84.30 354.55 86.48 C 358.74 95.48 352.79 109.40 341.60 108.46 C 335.92 101.51 339.24 91.62 338.61 83.39 M 340.69 92.53 C 340.69 94.51 340.72 96.49 340.78 98.47 C 343.07 98.25 345.36 97.98 347.66 97.71 C 348.14 96.28 348.07 94.69 347.79 93.22 C 345.42 92.98 343.06 92.74 340.69 92.53 Z" />
<path fill="#d1cbb0" opacity="1.00" d=" M 300.29 105.49 C 306.28 102.89 311.23 97.20 318.21 97.55 C 314.11 101.17 308.74 103.00 304.82 106.81 C 301.75 109.82 302.52 114.35 302.61 118.21 C 305.29 119.61 308.17 120.58 311.17 120.98 C 307.20 125.97 298.54 127.04 294.55 121.51 C 289.80 115.97 295.27 108.57 300.29 105.49 Z" />
<path fill="#d1cbb0" opacity="1.00" d=" M 206.82 104.04 C 215.61 100.17 224.18 109.43 223.62 117.94 C 224.43 125.74 220.86 132.99 217.81 139.93 C 208.43 154.79 193.83 165.18 182.18 178.08 C 188.25 163.63 205.21 157.71 211.55 143.71 C 204.36 145.17 195.60 147.93 190.28 140.99 C 188.84 127.07 193.94 111.05 206.82 104.04 M 195.57 132.28 C 199.46 138.90 208.25 136.64 213.48 133.04 C 213.55 135.58 213.67 138.11 213.94 140.64 C 217.98 134.91 222.22 127.53 219.75 120.33 C 217.14 114.85 210.78 111.95 204.87 112.51 C 198.28 116.39 191.59 124.33 195.57 132.28 Z" />
<path fill="#d1cbb0" opacity="1.00" d=" M 175.46 106.22 C 176.47 106.31 177.47 106.41 178.48 106.51 C 181.64 111.85 185.08 117.51 184.66 123.98 C 185.42 130.13 181.66 135.50 181.35 141.51 C 180.97 145.40 180.64 149.29 180.01 153.14 C 178.13 151.24 176.53 149.08 175.29 146.71 C 176.56 140.17 176.43 133.47 177.52 126.90 C 176.40 125.83 175.28 124.77 174.17 123.70 C 174.26 117.84 175.74 112.09 175.46 106.22 Z" />
<path fill="#d1cbb0" opacity="1.00" d=" M 251.72 140.72 C 258.71 132.71 267.24 126.26 274.22 118.19 C 274.78 118.84 275.34 119.50 275.91 120.16 C 274.49 126.42 270.35 131.52 265.09 135.03 C 254.26 145.62 242.41 155.17 232.68 166.87 C 232.15 166.69 231.11 166.32 230.59 166.14 C 231.51 154.00 243.75 148.14 251.72 140.72 Z" />
<path fill="#d1cbb0" opacity="1.00" d=" M 463.65 120.67 C 468.80 119.45 473.57 124.59 475.56 128.77 C 473.16 131.94 470.06 134.52 467.63 137.68 C 463.19 137.85 460.32 133.81 456.61 131.94 C 456.71 127.24 460.47 123.70 463.65 120.67 Z" />
<path fill="#d1cbb0" opacity="1.00" d=" M 199.16 124.25 C 202.11 121.98 205.76 120.65 209.51 121.45 C 210.67 123.65 210.55 126.19 210.74 128.60 C 208.03 129.63 205.24 130.43 202.38 130.91 C 201.31 128.69 200.23 126.47 199.16 124.25 Z" />
<path fill="#d1cbb0" opacity="1.00" d=" M 326.05 142.04 C 327.27 134.51 327.45 124.14 335.90 120.99 C 334.86 126.60 330.50 131.21 331.48 137.26 C 334.39 138.60 337.57 138.61 340.68 138.06 C 344.05 133.84 344.69 127.80 349.55 124.77 C 349.56 129.26 349.46 133.75 349.72 138.24 C 350.95 138.40 352.19 138.56 353.44 138.72 C 356.19 134.45 356.51 128.31 361.61 125.73 C 362.57 134.89 354.60 144.76 344.91 143.52 C 343.70 142.27 342.55 140.91 341.01 140.05 C 336.50 142.58 330.51 147.67 326.05 142.04 Z" />
<path fill="#d1cbb0" opacity="1.00" d=" M 152.62 136.54 C 153.55 136.52 154.47 136.50 155.40 136.48 C 158.59 138.69 161.77 140.97 164.35 143.91 C 161.45 147.83 158.02 151.33 154.08 154.21 C 150.83 152.02 147.75 149.59 144.90 146.91 C 145.45 142.23 149.00 139.09 152.62 136.54 Z" />
<path fill="#d1cbb0" opacity="1.00" d=" M 269.63 152.28 C 268.72 144.48 275.66 137.20 283.60 138.20 C 290.75 143.17 288.26 152.45 288.52 159.81 C 287.56 159.73 286.60 159.65 285.64 159.57 C 285.32 153.97 284.62 146.29 278.01 144.73 C 273.84 145.17 272.03 149.43 269.63 152.28 Z" />
<path fill="#d1cbb0" opacity="1.00" d=" M 439.43 144.82 C 439.73 142.72 441.83 141.44 443.07 139.85 C 445.31 140.49 447.53 141.19 449.72 142.00 C 449.70 143.28 449.68 144.56 449.68 145.85 C 448.14 147.36 446.58 148.85 445.00 150.32 C 443.00 148.68 440.49 147.30 439.43 144.82 Z" />
<path fill="#d1cbb0" opacity="1.00" d=" M 166.73 144.96 C 174.81 149.74 172.03 161.24 174.89 168.98 C 175.39 175.40 180.36 180.93 179.16 187.41 C 174.90 178.63 173.73 168.56 169.03 160.07 C 164.51 165.12 165.23 172.23 163.31 178.32 C 160.87 186.00 163.00 194.41 159.37 201.79 C 157.21 182.62 157.35 162.38 166.73 144.96 Z" />
<path fill="#d1cbb0" opacity="1.00" d=" M 254.58 178.67 C 255.88 169.19 261.05 156.86 272.68 158.31 C 273.63 162.74 273.65 167.28 273.80 171.79 C 276.67 171.02 279.36 169.76 281.82 168.11 C 281.76 169.34 281.70 170.57 281.66 171.81 C 277.10 177.38 270.63 180.97 263.65 182.47 C 253.01 186.06 241.52 186.67 230.60 184.01 C 238.41 181.41 246.77 181.21 254.58 178.67 M 260.96 167.17 C 260.75 169.48 260.67 171.80 260.70 174.12 C 263.72 174.48 267.58 175.12 269.34 171.89 C 269.47 170.20 269.32 168.50 269.24 166.81 C 266.47 166.49 263.68 166.58 260.96 167.17 Z" />
<path fill="#d1cbb0" opacity="1.00" d=" M 431.60 160.89 C 439.41 158.79 445.49 167.57 447.57 174.22 C 449.89 184.98 448.29 196.19 446.61 206.95 C 443.12 213.86 433.22 214.62 428.78 208.25 C 422.11 200.31 427.80 189.87 426.23 180.76 C 424.03 180.59 421.84 180.44 419.65 180.31 C 419.53 178.67 419.42 177.03 419.29 175.39 C 421.10 175.39 422.90 175.39 424.71 175.39 C 430.29 184.28 427.47 194.45 427.60 204.19 C 430.21 207.24 433.70 209.42 437.86 208.22 C 443.99 202.55 444.20 193.73 444.54 185.99 C 443.86 179.05 444.02 171.62 440.27 165.47 C 439.39 165.56 437.63 165.75 436.76 165.84 C 436.59 167.72 436.44 169.60 436.29 171.48 C 433.43 172.80 430.50 172.37 428.15 170.28 C 428.69 167.03 426.88 161.47 431.60 160.89 Z" />
<path fill="#d1cbb0" opacity="1.00" d=" M 287.84 173.22 C 289.96 171.08 291.68 167.68 295.00 167.39 C 297.76 167.83 299.65 170.25 301.75 171.91 C 301.74 172.71 301.72 174.30 301.71 175.09 C 299.86 177.04 297.98 178.95 296.07 180.84 C 295.40 180.76 294.07 180.62 293.41 180.55 C 290.65 178.88 288.66 176.35 287.84 173.22 Z" />
<path fill="#d1cbb0" opacity="1.00" d=" M 338.38 182.28 C 339.93 182.41 341.47 182.55 343.02 182.69 C 346.43 187.65 345.37 194.29 348.80 198.93 C 352.32 193.33 356.19 185.79 363.54 185.09 C 363.63 186.92 363.72 188.74 363.82 190.57 C 361.83 190.49 359.83 190.44 357.84 190.43 C 352.46 195.67 349.66 202.95 344.71 208.23 C 343.92 202.03 345.64 193.24 338.84 189.99 C 336.23 188.27 338.18 184.73 338.38 182.28 Z" />
<path fill="#d1cbb0" opacity="1.00" d=" M 272.56 194.40 C 270.91 189.38 275.68 185.92 279.00 183.10 C 281.81 185.23 284.89 187.07 287.35 189.63 C 287.70 193.64 283.33 196.09 281.01 198.83 C 279.77 198.73 278.53 198.63 277.30 198.54 C 275.66 197.23 273.92 196.01 272.56 194.40 Z" />
<path fill="#d1cbb0" opacity="1.00" d=" M 179.30 208.87 C 176.20 199.95 183.83 191.90 188.92 185.35 C 190.30 185.34 191.68 185.32 193.06 185.29 C 205.56 201.47 200.41 223.25 194.46 240.96 C 184.92 240.48 188.43 229.08 189.48 223.07 C 185.28 218.96 182.97 213.41 179.30 208.87 M 185.24 215.41 C 186.92 215.75 188.59 216.12 190.27 216.50 C 194.23 211.72 194.52 205.25 195.33 199.38 C 188.74 200.91 184.53 208.83 185.24 215.41 Z" />
<path fill="#d1cbb0" opacity="1.00" d=" M 297.45 189.48 C 301.97 184.37 310.51 188.73 310.58 195.16 C 310.56 203.14 312.05 211.81 307.93 219.09 C 303.15 230.46 295.14 241.44 283.26 246.02 C 274.23 249.26 264.48 248.48 255.06 248.43 C 251.73 248.47 248.50 247.46 245.70 245.68 C 257.89 246.38 269.92 243.73 281.19 239.21 C 291.67 232.72 301.70 224.58 307.21 213.26 C 308.22 210.76 307.58 207.99 307.54 205.38 C 305.95 205.42 304.37 205.47 302.79 205.51 C 302.08 206.28 301.38 207.04 300.68 207.81 C 298.31 207.69 295.94 207.60 293.57 207.50 C 293.30 201.33 292.32 194.07 297.45 189.48 Z" />
<path fill="#d1cbb0" opacity="1.00" d=" M 365.81 195.90 C 371.60 192.23 378.39 188.76 385.46 189.51 C 386.79 196.25 383.62 203.19 377.57 206.38 C 371.87 206.92 365.87 205.94 360.62 208.83 C 360.63 210.55 360.65 212.28 360.68 214.01 C 365.64 218.62 372.76 217.63 378.93 217.06 C 386.10 216.19 391.75 211.35 398.00 208.22 C 394.64 215.95 388.01 221.38 382.73 227.72 C 372.46 236.56 358.41 241.11 350.84 252.96 C 347.93 256.78 348.53 261.73 348.59 266.21 C 356.73 280.19 374.71 274.97 387.28 271.44 C 405.22 264.57 423.07 256.55 437.94 244.08 C 423.23 263.73 402.47 278.78 379.52 287.39 C 372.29 290.19 364.98 293.60 357.00 292.66 C 349.00 293.84 340.26 289.80 336.98 282.25 C 335.60 276.44 336.82 270.33 337.93 264.56 C 341.32 254.72 349.00 247.26 355.89 239.77 C 355.99 239.10 356.21 237.74 356.31 237.06 C 352.45 233.67 345.89 231.15 346.33 225.03 C 344.78 211.84 357.13 203.54 365.81 195.90 Z" />
<path fill="#d1cbb0" opacity="1.00" d=" M 394.83 194.55 C 398.42 195.15 401.73 193.69 404.86 192.12 C 404.34 194.52 403.46 196.82 402.16 198.91 C 400.29 198.75 398.41 198.68 396.56 198.35 C 395.89 197.13 395.37 195.83 394.83 194.55 Z" />
<path fill="#d1cbb0" opacity="1.00" d=" M 454.32 193.09 C 457.90 197.70 463.28 196.36 467.85 194.16 C 467.34 197.28 466.13 200.23 464.27 202.80 C 461.87 202.68 459.48 202.63 457.08 202.64 C 454.33 200.17 454.26 196.52 454.32 193.09 Z" />
<path fill="#d1cbb0" opacity="1.00" d=" M 223.16 207.24 C 221.79 200.68 227.83 195.38 234.11 197.92 C 234.20 198.73 234.28 199.55 234.37 200.37 C 232.47 200.34 230.58 200.30 228.69 200.27 C 227.11 202.79 225.24 205.12 223.16 207.24 Z" />
<path fill="#d1cbb0" opacity="1.00" d=" M 245.59 203.63 C 246.61 203.53 247.64 203.44 248.67 203.34 C 253.23 207.97 256.10 213.97 257.42 220.30 C 261.67 218.91 261.71 212.75 264.81 209.72 C 266.98 205.64 271.69 202.47 275.86 206.07 C 275.67 208.62 275.48 211.28 273.80 213.35 C 273.61 212.39 273.24 210.47 273.05 209.51 C 263.76 209.72 262.02 221.67 258.09 228.26 C 257.31 228.32 256.54 228.37 255.76 228.43 C 255.13 221.53 252.42 214.04 245.45 211.31 C 245.42 208.75 245.48 206.19 245.59 203.63 Z" />
<path fill="#d1cbb0" opacity="1.00" d=" M 226.70 214.79 C 230.10 213.34 233.42 211.71 236.65 209.93 C 236.69 210.70 236.76 212.23 236.80 213.00 C 233.72 215.54 230.31 217.91 226.17 218.05 C 226.34 216.96 226.52 215.87 226.70 214.79 Z" />
<path fill="#d1cbb0" opacity="1.00" d=" M 284.64 212.78 C 287.28 212.81 291.99 211.47 292.45 215.39 C 294.32 221.50 288.43 225.17 284.44 228.45 C 286.40 223.30 284.82 218.03 284.64 212.78 Z" />
<path fill="#d1cbb0" opacity="1.00" d=" M 222.21 218.07 C 223.04 218.36 223.88 218.66 224.72 218.96 C 225.09 228.19 233.21 233.78 238.79 240.09 C 229.55 236.93 222.19 228.07 222.21 218.07 Z" />
<path fill="#d1cbb0" opacity="1.00" d=" M 399.32 220.25 C 401.77 220.51 405.12 219.87 406.44 222.58 C 407.42 226.25 404.15 229.35 401.06 230.64 C 398.86 229.25 397.34 227.08 395.77 225.06 C 396.96 223.46 398.14 221.86 399.32 220.25 Z" />
<path fill="#d1cbb0" opacity="1.00" d=" M 403.99 243.81 C 404.29 239.67 407.15 236.65 410.03 233.98 C 413.65 234.83 416.96 236.58 419.80 238.98 C 419.73 239.64 419.59 240.97 419.52 241.64 C 417.26 244.54 414.77 247.25 412.13 249.80 C 409.50 247.69 406.78 245.70 403.99 243.81 Z" />
<path fill="#d1cbb0" opacity="1.00" d=" M 335.51 245.57 C 335.20 242.61 335.53 239.65 335.72 236.71 C 336.88 240.55 340.70 242.97 341.60 246.74 C 339.56 246.53 337.26 246.85 335.51 245.57 Z" />
<path fill="#d1cbb0" opacity="1.00" d=" M 376.52 242.78 C 380.44 242.04 384.46 242.57 388.43 242.62 C 388.56 245.96 388.59 249.31 388.68 252.66 C 391.72 252.55 394.73 252.06 397.68 251.30 C 397.67 251.92 397.66 253.18 397.66 253.81 C 392.38 256.35 387.22 259.17 383.27 263.59 C 377.61 263.46 372.34 266.45 366.62 265.46 C 366.49 263.41 366.36 261.35 366.23 259.30 C 369.38 259.40 372.54 259.38 375.69 259.07 C 374.16 257.04 372.31 255.29 370.75 253.30 C 369.07 248.90 372.46 244.29 376.52 242.78 M 376.46 248.80 C 378.27 251.97 381.38 254.18 385.17 253.28 C 385.18 251.81 385.17 250.34 385.16 248.87 C 382.26 248.62 379.35 248.53 376.46 248.80 Z" />
<path fill="#d1cbb0" opacity="1.00" d=" M 320.35 269.31 C 322.82 266.65 325.03 261.75 329.37 262.65 C 330.19 267.92 326.92 272.53 325.06 277.20 C 321.25 284.70 320.38 293.66 314.44 300.00 L 312.52 300.00 C 313.12 295.21 314.36 290.46 314.23 285.60 C 311.32 287.21 308.62 289.17 305.70 290.76 C 307.82 282.02 315.46 276.44 320.35 269.31 Z" />
</g>
</svg>
